<?xml version="1.0" encoding="UTF-8"?>
<svg id="Calque_2" data-name="Calque 2" xmlns="http://www.w3.org/2000/svg" viewBox="0 0 85.15 81.27">
  <defs>
    <style>
      .cls-1 {
        fill: #eb5d1f;
      }

      .cls-2 {
        fill: #ec6408;
      }
    </style>
  </defs>
  <g id="Calque_1-2" data-name="Calque 1">
    <path class="cls-1" d="M48.89,19.46c.58-.99-1.36-6.48-2.62-6.65-2.12-.3-5.4,4.63-6.42,6.27-5.17,8.3-8.29,18.21-12.41,27.05-3.22,6.9-7.58,15.75-16.87,13.71C-.51,57.4.12,37.49.02,28.84-.08,20.41.25,11.95.71,3.47c.06-1.06-.06-2.14-.02-3.21C.74.04,1.08.01,1.27,0c3.76-.09,7.75.62,11.55.57l.54.38c-.06,2.14-.11,4.29-.2,6.43-.39,9.42-.97,19.2-.47,28.63.15,2.89.53,5.78.93,8.64.42.38.99-1.06,1.12-1.3,2.92-5.53,5.03-12.02,7.61-17.78C27.09,15.03,35.23-2.81,49.64.46c6.27,1.42,9.44,7.57,11.3,13.17.29.18,5.71-.26,6.82-.13.32.04.64,0,.78.39l-1.71,12.09c-.5.66-3.83-.36-4.24.84-.03,10.92-1.13,22.14-4.03,32.67-2.77,10.07-8.49,25.31-21.85,21.06-9.4-2.99-10.12-14.6-8.98-22.81,1.89-13.51,9.24-27.45,19.12-36.73.31-.29,1.97-1.43,2.03-1.54ZM40.63,68.43c.6.46,2.21-2.57,2.43-2.99,1.13-2.22,2.03-5,2.76-7.39,2.03-6.69,3.3-13.81,3.81-20.77-1.04.81-1.8,2.24-2.49,3.39-2.25,3.75-4.25,8.33-5.47,12.53-1.39,4.78-2.52,10.37-1.04,15.23Z"/>
    <circle class="cls-2" cx="78.93" cy="19.92" r="6.22"/>
  </g>
</svg>