<?xml version="1.0" encoding="UTF-8"?>
<svg id="Calque_2" data-name="Calque 2" xmlns="http://www.w3.org/2000/svg" viewBox="0 0 179.96 75.81">
  <defs>
    <style>
      .cls-1 {
        fill: #eb5d1f;
      }

      .cls-2 {
        fill: #ec6408;
      }

      .cls-3 {
        fill: #e4eef0;
      }

      .cls-4 {
        fill: none;
        stroke: #e4eef0;
        stroke-miterlimit: 10;
        stroke-width: 9px;
      }
    </style>
  </defs>
  <g id="Calque_1-2" data-name="Calque 1">
    <path class="cls-3" d="M42.01,29.36h2.58c4.28,0,7.76,3.47,7.76,7.76v24.78h-10.34V29.36Z"/>
    <path class="cls-3" d="M54.34,44.86c0-9.7,7.53-17.03,17.61-17.03,8.86,0,15.87,5.79,16.9,13.82,0,.01,0,.02-.02.02h-10.94s-.01,0-.02-.01c-.8-2.21-2.97-3.71-5.64-3.81-4.2-.16-7.67,3.59-7.27,7.77.35,3.63,3.22,6.26,6.98,6.26,2.1,0,3.92-.86,5.05-2.26.84-1.04,2.17-1.57,3.51-1.57h8.32s.02.01.02.02c-1.03,8.03-8.04,13.82-16.9,13.82-10.08,0-17.61-7.34-17.61-17.03Z"/>
    <path class="cls-3" d="M92.12,15.96h10.34v16.84c3.32-2.62,7.4-4.21,11.61-4.21,6.7,0,11.17,4.08,11.17,10.02,0,4.72-2.87,8.55-7.91,11.23,1.47,1.34,3.45,2.04,5.87,2.04h2.04v10.02h-3.25c-6.38,0-12.57-1.53-15.76-8.29l-.32-.45c-1.08.13-2.23.25-3.44.32v8.42h-10.34V15.96ZM102.45,42.88v2.17c7.34-.83,12.31-2.81,12.31-5.29,0-1.02-.96-1.72-2.74-1.72-3,0-6.95,2.04-9.57,4.85Z"/>
    <path class="cls-1" d="M158.12,38.36c.35-.6-.82-3.92-1.58-4.03-1.28-.18-3.27,2.8-3.89,3.8-3.13,5.03-5.02,11.03-7.52,16.39-1.95,4.18-4.59,9.54-10.22,8.31-6.71-1.47-6.33-13.54-6.39-18.78-.06-5.11.14-10.24.42-15.37.04-.64-.03-1.3-.01-1.94.03-.14.24-.16.35-.16,2.28-.05,4.7.38,7,.35l.33.23c-.04,1.3-.07,2.6-.12,3.9-.24,5.71-.59,11.63-.28,17.35.09,1.75.32,3.51.57,5.24.25.23.6-.64.68-.79,1.77-3.35,3.05-7.29,4.61-10.77,2.87-6.39,7.8-17.2,16.53-15.23,3.8.86,5.72,4.59,6.85,7.98.18.11,3.46-.16,4.14-.08.2.02.38,0,.47.23l-1.04,7.33c-.3.4-2.32-.22-2.57.51-.02,6.62-.69,13.42-2.44,19.8-1.68,6.1-5.14,15.34-13.24,12.76-5.7-1.81-6.13-8.85-5.44-13.82,1.14-8.19,5.6-16.63,11.59-22.26.19-.17,1.19-.87,1.23-.94ZM153.12,68.03c.36.28,1.34-1.56,1.47-1.81.68-1.35,1.23-3.03,1.67-4.48,1.23-4.05,2-8.37,2.31-12.59-.63.49-1.09,1.36-1.51,2.05-1.37,2.27-2.57,5.05-3.31,7.6-.84,2.9-1.53,6.28-.63,9.23Z"/>
    <circle class="cls-1" cx="176.19" cy="38.92" r="3.77"/>
    <path class="cls-4" d="M3.78,2.44c7.64,11.81,3.22,24.87,11.72,31.36,4.38,3.47,11.06,2.81,15.01-1.03,4.25-3.91,4.85-10.39,1.32-15.09-3.37-4.71-9.87-5.14-14.73-2.73C1.46,22.88,6.61,45.65,6.81,61.89"/>
    <path class="cls-2" d="M42.01,20.49c0-2.98,2.25-5.17,5.17-5.17s5.17,2.19,5.17,5.17-2.19,5.12-5.17,5.12-5.17-2.19-5.17-5.12Z"/>
  </g>
</svg>