<svg width="357" height="276" viewBox="0 0 357 276" fill="none" xmlns="http://www.w3.org/2000/svg">
<path d="M17.45 191.324C17.4038 191.324 17.3596 191.306 17.3269 191.273C17.2942 191.24 17.2759 191.196 17.2759 191.15V187.748C17.2759 187.701 17.2942 187.657 17.3269 187.624C17.3595 187.592 17.4038 187.573 17.45 187.573C17.4962 187.573 17.5405 187.592 17.5732 187.624C17.6058 187.657 17.6242 187.701 17.6242 187.748V191.15C17.6242 191.196 17.6058 191.24 17.5732 191.273C17.5405 191.306 17.4962 191.324 17.45 191.324Z" fill="#CCCCCC"/>
<path d="M17.4499 190.155C17.4083 190.155 17.3681 190.14 17.3366 190.113L15.2467 188.316C15.2291 188.301 15.2147 188.283 15.2041 188.263C15.1936 188.242 15.1872 188.22 15.1854 188.197C15.1835 188.174 15.1862 188.151 15.1934 188.129C15.2005 188.107 15.2118 188.087 15.2268 188.069C15.2418 188.052 15.2601 188.037 15.2806 188.027C15.3012 188.017 15.3236 188.01 15.3465 188.009C15.3695 188.007 15.3925 188.01 15.4143 188.017C15.4361 188.025 15.4563 188.036 15.4736 188.051L17.5634 189.848C17.5904 189.871 17.6097 189.902 17.6186 189.937C17.6275 189.971 17.6257 190.008 17.6133 190.041C17.6009 190.075 17.5787 190.103 17.5494 190.124C17.5202 190.144 17.4855 190.155 17.4499 190.155L17.4499 190.155Z" fill="#CCCCCC"/>
<path d="M30.8601 191.203C30.8614 189.492 31.5409 187.852 32.7492 186.642C33.9575 185.433 35.5957 184.753 37.3038 184.753C39.012 184.753 40.6502 185.433 41.8585 186.642C43.0668 187.852 43.7462 189.492 43.7476 191.203" fill="#FFDBCC"/>
<path d="M37.3038 191.203C37.2576 191.203 37.2133 191.185 37.1806 191.152C37.148 191.119 37.1296 191.075 37.1296 191.029V187.627C37.1296 187.581 37.148 187.536 37.1806 187.504C37.2133 187.471 37.2576 187.453 37.3038 187.453C37.35 187.453 37.3943 187.471 37.4269 187.504C37.4596 187.536 37.4779 187.581 37.4779 187.627V191.029C37.4779 191.075 37.4596 191.119 37.4269 191.152C37.3943 191.185 37.35 191.203 37.3038 191.203Z" fill="#CCCCCC"/>
<path d="M37.3038 190.034C37.2622 190.034 37.222 190.019 37.1904 189.992L35.1006 188.195C35.083 188.181 35.0685 188.162 35.0579 188.142C35.0474 188.121 35.041 188.099 35.0391 188.076C35.0373 188.053 35.04 188.03 35.0471 188.008C35.0542 187.986 35.0656 187.966 35.0806 187.948C35.0956 187.931 35.1139 187.917 35.1344 187.906C35.155 187.896 35.1774 187.89 35.2004 187.888C35.2233 187.886 35.2464 187.889 35.2682 187.897C35.29 187.904 35.3101 187.916 35.3275 187.931L37.4173 189.727C37.4443 189.751 37.4636 189.782 37.4725 189.816C37.4814 189.851 37.4796 189.887 37.4672 189.92C37.4548 189.954 37.4325 189.983 37.4033 190.003C37.3741 190.023 37.3394 190.034 37.3038 190.034L37.3038 190.034Z" fill="#CCCCCC"/>
<path d="M20.6465 238.521C26.8662 238.521 31.9082 237.343 31.9082 235.889C31.9082 234.435 26.8662 233.257 20.6465 233.257C14.4268 233.257 9.38477 234.435 9.38477 235.889C9.38477 237.343 14.4268 238.521 20.6465 238.521Z" fill="#FFDBCC"/>
<path d="M82.0569 204.701C82.1972 204.701 82.3319 204.644 82.4311 204.544C82.5303 204.444 82.5861 204.308 82.5861 204.166C82.5861 204.025 82.5303 203.889 82.4311 203.788C82.3319 203.688 82.1972 203.632 82.0569 203.632H77.0298V201.494H82.0569C82.1972 201.494 82.3319 201.438 82.4311 201.338C82.5303 201.238 82.5861 201.102 82.5861 200.96C82.5861 200.818 82.5303 200.682 82.4311 200.582C82.3319 200.482 82.1972 200.426 82.0569 200.426H39.1944C39.0541 200.426 38.9195 200.482 38.8203 200.582C38.721 200.682 38.6653 200.818 38.6653 200.96C38.6653 201.102 38.721 201.238 38.8203 201.338C38.9195 201.438 39.0541 201.494 39.1944 201.494H44.2215V203.632H39.1944C39.0541 203.632 38.9195 203.688 38.8203 203.788C38.721 203.889 38.6653 204.025 38.6653 204.166C38.6653 204.308 38.721 204.444 38.8203 204.544C38.9195 204.644 39.0541 204.701 39.1944 204.701H44.2215V206.838H39.1944C39.0541 206.838 38.9195 206.894 38.8203 206.995C38.721 207.095 38.6653 207.231 38.6653 207.372C38.6653 207.514 38.721 207.65 38.8203 207.75C38.9195 207.851 39.0541 207.907 39.1944 207.907H44.2215V210.044H39.7236C39.4429 210.044 39.1738 210.157 38.9753 210.357C38.7768 210.558 38.6653 210.83 38.6653 211.113C38.6653 211.396 38.7768 211.668 38.9753 211.869C39.1738 212.069 39.4429 212.182 39.7236 212.182H44.0055C43.9743 212.267 43.9579 212.358 43.9569 212.449V219.93C43.9569 220.143 44.0406 220.346 44.1895 220.497C44.3383 220.647 44.5402 220.732 44.7507 220.732C44.9612 220.732 45.1631 220.647 45.312 220.497C45.4608 220.346 45.5444 220.143 45.5444 219.93V212.449C45.5435 212.358 45.5271 212.267 45.4959 212.182H75.7555C75.7243 212.267 75.7078 212.358 75.7069 212.449V219.93C75.7069 220.143 75.7906 220.346 75.9394 220.497C76.0883 220.647 76.2901 220.732 76.5006 220.732C76.7112 220.732 76.9131 220.647 77.0619 220.497C77.2108 220.346 77.2944 220.143 77.2944 219.93V212.449C77.2935 212.358 77.2771 212.267 77.2459 212.182H81.5277C81.8084 212.182 82.0776 212.069 82.2761 211.869C82.4746 211.668 82.5861 211.396 82.5861 211.113C82.5861 210.83 82.4746 210.558 82.2761 210.357C82.0776 210.157 81.8084 210.044 81.5277 210.044H77.0298V207.907H82.0569C82.1972 207.907 82.3319 207.851 82.4311 207.75C82.5303 207.65 82.5861 207.514 82.5861 207.372C82.5861 207.231 82.5303 207.095 82.4311 206.995C82.3319 206.894 82.1972 206.838 82.0569 206.838H77.0298V204.701H82.0569ZM45.2799 201.494H75.9715V203.632H45.2799V201.494ZM75.9715 210.044H45.2799V207.907H75.9715V210.044ZM75.9715 206.838H45.2799V204.701H75.9715V206.838Z" fill="black"/>
<path d="M345.405 192.529H0.329965C0.242453 192.529 0.158525 192.489 0.0966441 192.419C0.0347638 192.348 0 192.253 0 192.153C0 192.053 0.0347638 191.958 0.0966441 191.887C0.158525 191.817 0.242453 191.777 0.329965 191.777H345.405C345.493 191.777 345.577 191.817 345.639 191.887C345.701 191.958 345.735 192.053 345.735 192.153C345.735 192.253 345.701 192.348 345.639 192.419C345.577 192.489 345.493 192.529 345.405 192.529Z" fill="#FFDBCC"/>
<path d="M247.383 206.442H212.471C212.372 206.442 212.276 206.403 212.206 206.332C212.136 206.262 212.096 206.166 212.096 206.066C212.096 205.966 212.136 205.871 212.206 205.8C212.276 205.73 212.372 205.69 212.471 205.69H247.383C247.482 205.69 247.578 205.73 247.648 205.8C247.719 205.871 247.758 205.966 247.758 206.066C247.758 206.166 247.719 206.262 247.648 206.332C247.578 206.403 247.482 206.442 247.383 206.442Z" fill="#E6E6E6"/>
<path d="M270.014 69.3063C276.855 69.3063 282.402 63.7505 282.402 56.8972C282.402 50.0438 276.855 44.4881 270.014 44.4881C263.172 44.4881 257.626 50.0438 257.626 56.8972C257.626 63.7505 263.172 69.3063 270.014 69.3063Z" fill="#EB5D1F"/>
<path d="M10.5003 95.8742C13.4539 86.6356 20.6659 79.4708 29.2188 75.2094C39.3668 70.1532 51.0279 69.5807 62.0465 71.5486C73.9411 73.6729 85.058 78.57 95.8188 83.9142C106.374 89.1561 116.758 94.6912 127.735 99.0231C149.649 107.659 172.876 112.478 196.411 113.273C217.595 113.981 240.244 111.656 258.383 99.7291C275.002 88.8009 285.578 70.7724 291.086 51.9798C291.791 49.5739 292.418 47.1473 292.966 44.7C293.126 43.9931 292.041 43.6913 291.88 44.4001C287.437 64.0244 277.963 83.42 261.775 95.9295C244.266 109.459 221.287 112.587 199.784 112.229C175.991 111.813 152.451 107.262 130.212 98.7805C118.953 94.4868 108.328 88.9114 97.568 83.5287C87.0443 78.2643 76.2249 73.3363 64.6526 70.9083C54.0856 68.6912 42.772 68.5561 32.5838 72.5013C24.1945 75.7499 16.5453 81.5403 12.0689 89.4614C10.9774 91.4026 10.0879 93.451 9.41438 95.5743C9.19283 96.2674 10.2798 96.5641 10.5003 95.8742Z" fill="#EB5D1F"/>
<path d="M194.077 164.917C194.077 158.276 188.699 142.517 182.065 142.517C175.43 142.517 170.052 158.276 170.052 164.917C170.052 168.108 171.318 171.169 173.571 173.426C175.823 175.682 178.879 176.95 182.065 176.95C185.251 176.95 188.306 175.682 190.559 173.426C192.812 171.169 194.077 168.108 194.077 164.917H194.077Z" fill="#DCDDDC"/>
<path d="M191.074 164.917C191.074 158.276 185.696 142.517 179.062 142.517C172.427 142.517 167.049 158.276 167.049 164.917C167.049 168.108 168.315 171.169 170.567 173.426C172.82 175.682 175.876 176.95 179.062 176.95C182.248 176.95 185.303 175.682 187.556 173.426C189.809 171.169 191.074 168.108 191.074 164.917H191.074Z" fill="#EAECEB"/>
<path d="M179.437 191.822C179.337 191.822 179.242 191.783 179.171 191.712C179.101 191.642 179.062 191.546 179.062 191.446V157.927C179.062 157.827 179.101 157.731 179.171 157.661C179.242 157.59 179.337 157.55 179.437 157.55C179.536 157.55 179.632 157.59 179.702 157.661C179.773 157.731 179.812 157.827 179.812 157.927V191.446C179.812 191.546 179.773 191.642 179.702 191.712C179.632 191.783 179.536 191.822 179.437 191.822Z" fill="#CACACA"/>
<path d="M179.437 163.422C179.363 163.422 179.29 163.399 179.228 163.358C179.167 163.317 179.119 163.258 179.09 163.189C179.062 163.121 179.054 163.045 179.069 162.972C179.083 162.899 179.119 162.832 179.171 162.78L184.081 157.862C184.151 157.791 184.247 157.752 184.346 157.752C184.446 157.752 184.541 157.791 184.611 157.862C184.682 157.932 184.721 158.028 184.721 158.128C184.721 158.227 184.682 158.323 184.611 158.394L179.702 163.311C179.667 163.346 179.626 163.374 179.581 163.393C179.535 163.412 179.486 163.422 179.437 163.422Z" fill="#CACACA"/>
<path d="M81.9428 63.4777H75.9366C75.4887 63.4772 75.0593 63.2988 74.7426 62.9816C74.4259 62.6643 74.2478 62.2342 74.2473 61.7856V47.8724C74.2478 47.4237 74.4259 46.9936 74.7426 46.6764C75.0593 46.3591 75.4887 46.1807 75.9366 46.1802H81.9428C82.3907 46.1807 82.8201 46.3591 83.1368 46.6764C83.4535 46.9936 83.6316 47.4237 83.6321 47.8724V61.7856C83.6316 62.2342 83.4535 62.6643 83.1368 62.9816C82.8201 63.2988 82.3907 63.4772 81.9428 63.4777Z" fill="black"/>
<path d="M105.593 193.209H74.8105C73.9645 193.208 73.1534 192.871 72.5553 192.272C71.9571 191.673 71.6206 190.86 71.6196 190.013V65.5459C71.6206 64.6985 71.9571 63.8861 72.5553 63.2869C73.1534 62.6877 73.9645 62.3506 74.8105 62.3496H105.593C106.439 62.3506 107.25 62.6876 107.848 63.2869C108.446 63.8861 108.782 64.6985 108.783 65.5459V190.013C108.782 190.86 108.446 191.673 107.848 192.272C107.25 192.871 106.439 193.208 105.593 193.209Z" fill="black"/>
<path d="M87.1982 193.209H56.4162C55.5702 193.208 54.7592 192.871 54.161 192.272C53.5628 191.673 53.2263 190.86 53.2253 190.013V65.5459C53.2263 64.6985 53.5628 63.8861 54.161 63.2869C54.7592 62.6877 55.5702 62.3506 56.4162 62.3496H87.1982C88.0442 62.3506 88.8553 62.6877 89.4534 63.2869C90.0516 63.8861 90.3881 64.6985 90.3891 65.5459V190.013C90.3881 190.86 90.0516 191.673 89.4534 192.272C88.8553 192.871 88.0442 193.208 87.1982 193.209Z" fill="black"/>
<path d="M76.312 63.4777H70.3057C69.8578 63.4772 69.4285 63.2988 69.1118 62.9816C68.7951 62.6643 68.617 62.2342 68.6165 61.7856V47.8724C68.617 47.4237 68.7951 46.9936 69.1118 46.6764C69.4285 46.3591 69.8578 46.1807 70.3057 46.1802H76.312C76.7598 46.1807 77.1892 46.3591 77.5059 46.6764C77.8226 46.9936 78.0007 47.4237 78.0012 47.8724V61.7856C78.0007 62.2342 77.8226 62.6643 77.5059 62.9816C77.1892 63.2988 76.7598 63.4772 76.312 63.4777Z" fill="black"/>
<path d="M68.4286 90.5521H61.2961C61.0473 90.5518 60.8088 90.4527 60.6329 90.2765C60.4569 90.1002 60.358 89.8613 60.3577 89.612V78.7071C60.358 78.4578 60.4569 78.2189 60.6329 78.0427C60.8088 77.8664 61.0473 77.7673 61.2961 77.767H68.4286C68.6774 77.7673 68.9159 77.8664 69.0919 78.0427C69.2678 78.2189 69.3668 78.4578 69.3671 78.7071V89.612C69.3668 89.8613 69.2678 90.1002 69.0919 90.2765C68.9159 90.4527 68.6774 90.5518 68.4286 90.5521Z" fill="#EB5D1F"/>
<path d="M82.3182 90.5521H75.1858C74.937 90.5518 74.6984 90.4527 74.5225 90.2765C74.3466 90.1002 74.2476 89.8613 74.2473 89.612V78.7071C74.2476 78.4578 74.3466 78.2189 74.5225 78.0427C74.6984 77.8664 74.937 77.7673 75.1858 77.767H82.3182C82.567 77.7673 82.8056 77.8664 82.9815 78.0427C83.1575 78.2189 83.2564 78.4578 83.2567 78.7071V89.612C83.2564 89.8613 83.1575 90.1002 82.9815 90.2765C82.8056 90.4527 82.567 90.5518 82.3182 90.5521Z" fill="#EB5D1F"/>
<path d="M68.4286 110.482H61.2961C61.0473 110.482 60.8088 110.382 60.6329 110.206C60.4569 110.03 60.358 109.791 60.3577 109.542V98.6368C60.358 98.3876 60.4569 98.1487 60.6329 97.9724C60.8088 97.7962 61.0473 97.697 61.2961 97.6968H68.4286C68.6774 97.697 68.9159 97.7962 69.0919 97.9724C69.2678 98.1487 69.3668 98.3876 69.3671 98.6368V109.542C69.3668 109.791 69.2678 110.03 69.0919 110.206C68.9159 110.382 68.6774 110.482 68.4286 110.482Z" fill="#EB5D1F"/>
<path d="M82.3182 110.482H75.1858C74.937 110.482 74.6984 110.382 74.5225 110.206C74.3466 110.03 74.2476 109.791 74.2473 109.542V98.6368C74.2476 98.3876 74.3466 98.1487 74.5225 97.9724C74.6984 97.7962 74.937 97.697 75.1858 97.6968H82.3182C82.567 97.697 82.8056 97.7962 82.9815 97.9724C83.1575 98.1487 83.2564 98.3876 83.2567 98.6368V109.542C83.2564 109.791 83.1575 110.03 82.9815 110.206C82.8056 110.382 82.567 110.482 82.3182 110.482Z" fill="#EB5D1F"/>
<path d="M68.4286 130.412H61.2961C61.0473 130.411 60.8088 130.312 60.6329 130.136C60.4569 129.96 60.358 129.721 60.3577 129.472V118.567C60.358 118.317 60.4569 118.078 60.6329 117.902C60.8088 117.726 61.0473 117.627 61.2961 117.627H68.4286C68.6774 117.627 68.9159 117.726 69.0919 117.902C69.2678 118.078 69.3668 118.317 69.3671 118.567V129.472C69.3668 129.721 69.2678 129.96 69.0919 130.136C68.9159 130.312 68.6774 130.411 68.4286 130.412Z" fill="#EB5D1F"/>
<path d="M82.3182 130.412H75.1858C74.937 130.411 74.6984 130.312 74.5225 130.136C74.3466 129.96 74.2476 129.721 74.2473 129.472V118.567C74.2476 118.317 74.3466 118.078 74.5225 117.902C74.6984 117.726 74.937 117.627 75.1858 117.627H82.3182C82.567 117.627 82.8056 117.726 82.9815 117.902C83.1575 118.078 83.2564 118.317 83.2567 118.567V129.472C83.2564 129.721 83.1575 129.96 82.9815 130.136C82.8056 130.312 82.567 130.411 82.3182 130.412Z" fill="#EB5D1F"/>
<path d="M68.4286 150.341H61.2961C61.0473 150.341 60.8088 150.242 60.6329 150.066C60.4569 149.89 60.358 149.651 60.3577 149.401V138.496C60.358 138.247 60.4569 138.008 60.6329 137.832C60.8088 137.656 61.0473 137.557 61.2961 137.556H68.4286C68.6774 137.557 68.9159 137.656 69.0919 137.832C69.2678 138.008 69.3668 138.247 69.3671 138.496V149.401C69.3668 149.651 69.2678 149.89 69.0919 150.066C68.9159 150.242 68.6774 150.341 68.4286 150.341Z" fill="#EB5D1F"/>
<path d="M82.3182 150.341H75.1858C74.937 150.341 74.6984 150.242 74.5225 150.066C74.3466 149.89 74.2476 149.651 74.2473 149.401V138.496C74.2476 138.247 74.3466 138.008 74.5225 137.832C74.6984 137.656 74.937 137.557 75.1858 137.556H82.3182C82.567 137.557 82.8056 137.656 82.9815 137.832C83.1575 138.008 83.2564 138.247 83.2567 138.496V149.401C83.2564 149.651 83.1575 149.89 82.9815 150.066C82.8056 150.242 82.567 150.341 82.3182 150.341Z" fill="#EB5D1F"/>
<path d="M68.4286 170.271H61.2961C61.0473 170.271 60.8088 170.172 60.6329 169.996C60.4569 169.819 60.358 169.58 60.3577 169.331V158.426C60.358 158.177 60.4569 157.938 60.6329 157.762C60.8088 157.585 61.0473 157.486 61.2961 157.486H68.4286C68.6774 157.486 68.9159 157.585 69.0919 157.762C69.2678 157.938 69.3668 158.177 69.3671 158.426V169.331C69.3668 169.58 69.2678 169.819 69.0919 169.996C68.9159 170.172 68.6774 170.271 68.4286 170.271Z" fill="#EB5D1F"/>
<path d="M82.3182 170.271H75.1858C74.937 170.271 74.6984 170.172 74.5225 169.996C74.3466 169.819 74.2476 169.58 74.2473 169.331V158.426C74.2476 158.177 74.3466 157.938 74.5225 157.762C74.6984 157.585 74.937 157.486 75.1858 157.486H82.3182C82.567 157.486 82.8056 157.585 82.9815 157.762C83.1575 157.938 83.2564 158.177 83.2567 158.426V169.331C83.2564 169.58 83.1575 169.819 82.9815 169.996C82.8056 170.172 82.567 170.271 82.3182 170.271Z" fill="#EB5D1F"/>
<path d="M236.979 129.284H230.973C230.525 129.283 230.096 129.105 229.779 128.787C229.463 128.47 229.284 128.04 229.284 127.591V119.695C229.284 119.246 229.463 118.816 229.779 118.499C230.096 118.182 230.525 118.003 230.973 118.003H236.979C237.427 118.003 237.857 118.182 238.173 118.499C238.49 118.816 238.668 119.246 238.669 119.695V127.591C238.668 128.04 238.49 128.47 238.173 128.787C237.857 129.105 237.427 129.283 236.979 129.284Z" fill="black"/>
<path d="M287.657 193.585H256.875C256.029 193.584 255.218 193.247 254.62 192.648C254.022 192.049 253.685 191.236 253.684 190.389V130.6C253.685 129.752 254.022 128.94 254.62 128.341C255.218 127.741 256.029 127.404 256.875 127.403H287.657C288.503 127.404 289.314 127.741 289.912 128.341C290.511 128.94 290.847 129.752 290.848 130.6V190.389C290.847 191.236 290.511 192.049 289.912 192.648C289.314 193.247 288.503 193.584 287.657 193.585Z" fill="black"/>
<path d="M269.263 193.585H215.957C215.111 193.584 214.3 193.247 213.702 192.648C213.104 192.049 212.768 191.236 212.767 190.389V130.6C212.768 129.752 213.104 128.94 213.702 128.341C214.3 127.741 215.111 127.404 215.957 127.403H269.263C270.109 127.404 270.92 127.741 271.518 128.341C272.116 128.94 272.453 129.752 272.454 130.6V190.389C272.453 191.236 272.116 192.049 271.518 192.648C270.92 193.247 270.109 193.584 269.263 193.585Z" fill="black"/>
<path d="M231.348 129.284H225.342C224.894 129.283 224.465 129.105 224.148 128.787C223.831 128.47 223.653 128.04 223.653 127.591V119.695C223.653 119.246 223.831 118.816 224.148 118.499C224.465 118.182 224.894 118.003 225.342 118.003H231.348C231.796 118.003 232.226 118.182 232.542 118.499C232.859 118.816 233.037 119.246 233.038 119.695V127.591C233.037 128.04 232.859 128.47 232.542 128.787C232.226 129.105 231.796 129.283 231.348 129.284Z" fill="black"/>
<path d="M239.232 156.922H232.099C231.851 156.922 231.612 156.823 231.436 156.646C231.26 156.47 231.161 156.231 231.161 155.982V145.077C231.161 144.828 231.26 144.589 231.436 144.413C231.612 144.236 231.851 144.137 232.099 144.137H239.232C239.481 144.137 239.719 144.236 239.895 144.413C240.071 144.589 240.17 144.828 240.17 145.077V155.982C240.17 156.231 240.071 156.47 239.895 156.646C239.719 156.823 239.481 156.922 239.232 156.922Z" fill="#EB5D1F"/>
<path d="M253.121 156.922H245.989C245.74 156.922 245.501 156.823 245.325 156.646C245.15 156.47 245.051 156.231 245.05 155.982V145.077C245.051 144.828 245.15 144.589 245.325 144.413C245.501 144.236 245.74 144.137 245.989 144.137H253.121C253.37 144.137 253.609 144.236 253.784 144.413C253.96 144.589 254.059 144.828 254.06 145.077V155.982C254.059 156.231 253.96 156.47 253.784 156.646C253.609 156.823 253.37 156.922 253.121 156.922Z" fill="#EB5D1F"/>
<path d="M239.232 176.852H232.099C231.851 176.851 231.612 176.752 231.436 176.576C231.26 176.4 231.161 176.161 231.161 175.912V165.007C231.161 164.757 231.26 164.519 231.436 164.342C231.612 164.166 231.851 164.067 232.099 164.067H239.232C239.481 164.067 239.719 164.166 239.895 164.342C240.071 164.519 240.17 164.757 240.17 165.007V175.912C240.17 176.161 240.071 176.4 239.895 176.576C239.719 176.752 239.481 176.851 239.232 176.852Z" fill="#EB5D1F"/>
<path d="M253.121 176.852H245.989C245.74 176.851 245.501 176.752 245.325 176.576C245.15 176.4 245.051 176.161 245.05 175.912V165.007C245.051 164.757 245.15 164.519 245.325 164.342C245.501 164.166 245.74 164.067 245.989 164.067H253.121C253.37 164.067 253.609 164.166 253.784 164.342C253.96 164.519 254.059 164.757 254.06 165.007V175.912C254.059 176.161 253.96 176.4 253.784 176.576C253.609 176.752 253.37 176.851 253.121 176.852Z" fill="#EB5D1F"/>
<path d="M180.939 35.2429C180.939 36.0185 180.914 36.7909 180.864 37.5541C180.58 41.9651 179.464 46.2827 177.576 50.28C177.561 50.314 177.545 50.3483 177.53 50.3792C177.443 50.5653 177.353 50.7485 177.26 50.9315C174.395 56.6847 170.012 61.547 164.585 64.9941C159.157 68.4411 152.891 70.3421 146.462 70.4918L146.813 90.5455L151.361 88.1504L152.175 89.6956L146.847 92.4969L147.465 127.87L147.496 191.965H144.009L144.044 127.87L145.102 70.495C140.443 70.4286 135.844 69.4379 131.571 67.5803C127.298 65.7226 123.437 63.0352 120.213 59.674C119.989 59.4444 119.772 59.2087 119.555 58.9728C119.545 58.9636 119.539 58.9542 119.533 58.948C116.845 56.0201 114.671 52.6595 113.103 49.008C113.137 49.0484 113.175 49.0825 113.209 49.1228C109.665 40.8446 109.425 31.5256 112.536 23.0758C115.647 14.626 121.875 7.68533 129.943 3.67637C130.064 3.61745 130.191 3.55837 130.312 3.49641C138.292 -0.344503 147.425 -1.04909 155.9 1.52232C164.375 4.09373 171.575 9.75342 176.071 17.3795C176.285 17.7392 176.493 18.1086 176.691 18.4777C179.485 23.6243 180.945 29.3879 180.939 35.2429Z" fill="black"/>
<path opacity="0.1" d="M273.731 224.564C276.547 224.564 279.095 224.722 280.938 224.975C281.859 225.102 282.602 225.251 283.112 225.417C283.367 225.5 283.56 225.586 283.687 225.671C283.817 225.759 283.859 225.834 283.86 225.89C283.86 225.946 283.817 226.021 283.687 226.109C283.56 226.194 283.367 226.281 283.112 226.364C282.602 226.529 281.859 226.679 280.938 226.806C279.095 227.059 276.547 227.217 273.731 227.217C270.915 227.217 268.367 227.059 266.525 226.806C265.603 226.679 264.861 226.529 264.351 226.364C264.095 226.281 263.903 226.194 263.776 226.109C263.645 226.021 263.602 225.946 263.602 225.89C263.602 225.834 263.645 225.759 263.776 225.671C263.903 225.586 264.096 225.5 264.351 225.417C264.861 225.251 265.603 225.102 266.525 224.975C268.367 224.722 270.915 224.564 273.731 224.564Z" fill="#EB5D1F" stroke="#EB5D1F" stroke-width="0.15479"/>
<path opacity="0.1" d="M312.826 228.535C315.642 228.535 318.19 228.693 320.033 228.946C320.955 229.073 321.697 229.223 322.207 229.388C322.462 229.471 322.655 229.557 322.782 229.642C322.912 229.73 322.955 229.805 322.955 229.861C322.955 229.917 322.913 229.992 322.782 230.08C322.655 230.165 322.462 230.252 322.207 230.335C321.697 230.501 320.955 230.65 320.033 230.777C318.19 231.031 315.642 231.188 312.826 231.188C310.01 231.188 307.462 231.03 305.62 230.777C304.698 230.65 303.956 230.501 303.446 230.335C303.191 230.252 302.998 230.165 302.871 230.08C302.74 229.992 302.697 229.917 302.697 229.861C302.697 229.805 302.74 229.73 302.871 229.642C302.998 229.557 303.191 229.471 303.446 229.388C303.956 229.223 304.698 229.073 305.62 228.946C307.462 228.693 310.01 228.535 312.826 228.535Z" fill="#EB5D1F" stroke="#EB5D1F" stroke-width="0.15479"/>
<path opacity="0.1" d="M297.178 240.247C299.179 240.247 300.99 240.359 302.298 240.539C302.953 240.629 303.479 240.735 303.839 240.852C304.02 240.911 304.155 240.972 304.243 241.031C304.334 241.092 304.356 241.139 304.356 241.168C304.356 241.196 304.334 241.243 304.243 241.305C304.155 241.364 304.02 241.424 303.839 241.482C303.479 241.599 302.953 241.707 302.298 241.797C300.99 241.977 299.179 242.088 297.178 242.088C295.177 242.088 293.367 241.977 292.059 241.797C291.404 241.707 290.878 241.6 290.517 241.482C290.336 241.423 290.202 241.364 290.114 241.305C290.023 241.243 290.001 241.196 290 241.168C290 241.139 290.023 241.092 290.114 241.031C290.202 240.972 290.336 240.911 290.517 240.852C290.878 240.735 291.404 240.629 292.059 240.539C293.367 240.359 295.177 240.247 297.178 240.247Z" fill="#EB5D1F" stroke="#EB5D1F" stroke-width="0.15479"/>
<path opacity="0.1" d="M337.754 239.249C339.755 239.249 341.566 239.361 342.875 239.541C343.529 239.631 344.055 239.737 344.416 239.855C344.596 239.913 344.732 239.974 344.82 240.033C344.911 240.094 344.932 240.142 344.932 240.17C344.932 240.198 344.911 240.246 344.82 240.307C344.732 240.366 344.596 240.426 344.416 240.484C344.055 240.602 343.529 240.709 342.875 240.799C341.566 240.979 339.755 241.09 337.754 241.09C335.754 241.09 333.944 240.979 332.635 240.799C331.98 240.709 331.454 240.602 331.093 240.484C330.913 240.426 330.778 240.366 330.69 240.307C330.599 240.245 330.577 240.198 330.577 240.17C330.577 240.142 330.599 240.095 330.69 240.033C330.778 239.974 330.912 239.913 331.093 239.855C331.454 239.737 331.98 239.631 332.635 239.541C333.944 239.361 335.754 239.249 337.754 239.249Z" fill="#EB5D1F" stroke="#EB5D1F" stroke-width="0.15479"/>
<path d="M315.344 163.766C327.315 150.152 340.847 151.306 347.39 152.972L348.001 153.134C349.62 153.566 351.126 154.345 352.414 155.416C353.701 156.488 354.741 157.827 355.46 159.34V159.341C356.552 161.702 357 164.797 355.246 168.424C353.489 172.056 349.521 176.229 341.759 180.73C328.739 188.281 321.82 197.238 318.158 204.31C316.327 207.846 315.31 210.91 314.75 213.091C314.471 214.182 314.305 215.051 314.209 215.649C314.162 215.947 314.132 216.178 314.114 216.334C314.105 216.412 314.098 216.472 314.094 216.512C314.092 216.532 314.091 216.548 314.09 216.558C314.09 216.563 314.09 216.567 314.089 216.57C314.089 216.571 314.088 216.573 314.088 216.574L313.003 229.129C312.991 229.087 312.977 229.041 312.963 228.993C312.863 228.644 312.717 228.131 312.538 227.47C312.179 226.149 311.684 224.24 311.143 221.891C310.06 217.192 308.789 210.731 308.035 203.683C307.28 196.634 307.044 189 308.029 181.955C309.014 174.908 311.22 168.457 315.344 163.766Z" fill="#EB5D1F" stroke="#EB5D1F" stroke-width="0.15479"/>
<path d="M345.78 159.726C345.78 159.726 303.586 172.942 313.045 229.547L345.78 159.726Z" fill="#EB5D1F"/>
<path d="M345.78 159.726C345.78 159.726 303.586 172.942 313.045 229.547" stroke="#EB5D1F" stroke-width="0.15479" stroke-miterlimit="10"/>
<path d="M321.136 164.463C321.136 164.463 326.946 168.386 325.099 174.279L321.136 164.463Z" fill="#EB5D1F"/>
<path d="M321.136 164.463C321.136 164.463 326.946 168.386 325.099 174.279" stroke="#EB5D1F" stroke-width="0.15479" stroke-miterlimit="10"/>
<path d="M341.549 167.954C341.549 167.954 337.997 164.335 333.674 166.332L341.549 167.954Z" fill="#EB5D1F"/>
<path d="M341.549 167.954C341.549 167.954 337.997 164.335 333.674 166.332" stroke="#EB5D1F" stroke-width="0.15479" stroke-miterlimit="10"/>
<path d="M324.87 186.158C324.87 186.158 318.633 182.987 317.02 186.958L324.87 186.158Z" fill="#EB5D1F"/>
<path d="M324.87 186.158C324.87 186.158 318.633 182.987 317.02 186.958" stroke="#EB5D1F" stroke-width="0.15479" stroke-miterlimit="10"/>
<path d="M333.824 196.583C334.892 196.757 335.674 197.369 336.247 198.209C336.75 198.946 337.091 199.858 337.32 200.796L337.411 201.199C337.973 203.983 337.656 206.872 336.504 209.467L336.503 209.468C334.139 214.9 327.802 225.202 312.614 229.794C312.643 229.735 312.681 229.661 312.726 229.571C312.849 229.321 313.032 228.955 313.266 228.489C313.733 227.557 314.405 226.225 315.227 224.63C316.87 221.439 319.109 217.193 321.492 212.971C323.875 208.748 326.401 204.551 328.617 201.457C329.726 199.91 330.755 198.641 331.649 197.783C332.096 197.354 332.507 197.031 332.875 196.826C333.244 196.621 333.561 196.54 333.824 196.583Z" fill="#EB5D1F" stroke="#EB5D1F" stroke-width="0.15479"/>
<path d="M333.712 202.99C333.712 202.99 316.115 228.549 312.716 229.671L333.712 202.99Z" fill="#EB5D1F"/>
<path d="M333.712 202.99C333.712 202.99 316.115 228.549 312.716 229.671" stroke="#EB5D1F" stroke-width="0.15479" stroke-miterlimit="10"/>
<path d="M291.607 196.583C291.87 196.54 292.188 196.621 292.556 196.826C292.924 197.031 293.335 197.354 293.782 197.783C294.676 198.641 295.706 199.91 296.814 201.457C299.031 204.551 301.556 208.748 303.939 212.971C306.322 217.193 308.561 221.439 310.205 224.63C311.026 226.225 311.699 227.557 312.166 228.489C312.399 228.955 312.582 229.321 312.706 229.571C312.75 229.661 312.787 229.735 312.816 229.794C297.629 225.202 291.292 214.9 288.928 209.468L288.927 209.467C287.775 206.872 287.458 203.983 288.02 201.199C288.247 200.121 288.61 199.051 289.184 198.209C289.758 197.369 290.539 196.757 291.607 196.583Z" fill="#EB5D1F" stroke="#EB5D1F" stroke-width="0.15479"/>
<path d="M291.72 202.99C291.72 202.99 309.316 228.549 312.716 229.671L291.72 202.99Z" fill="#EB5D1F"/>
<path d="M291.72 202.99C291.72 202.99 309.316 228.549 312.716 229.671" stroke="#EB5D1F" stroke-width="0.15479" stroke-miterlimit="10"/>
<path d="M338.495 233.365C338.725 233.338 338.935 233.386 339.082 233.542H339.083C339.193 233.673 339.264 233.832 339.29 234.001L339.291 234.004C339.377 234.434 339.349 234.879 339.212 235.295C339.075 235.711 338.832 236.085 338.508 236.379L338.386 236.489L338.549 236.513C338.897 236.561 339.219 236.453 339.513 236.283C339.806 236.114 340.078 235.88 340.324 235.666C340.57 235.453 340.851 235.245 341.143 235.119C341.432 234.994 341.725 234.952 342.005 235.058C342.25 235.181 342.446 235.385 342.56 235.636C342.673 235.886 342.698 236.168 342.629 236.435C342.469 236.986 342.145 237.476 341.7 237.839L341.698 237.842C341.029 238.453 340.282 238.971 339.476 239.382H335.899C335.891 239.363 335.885 239.343 335.877 239.324L335.824 239.217L335.822 239.212L335.698 239.036C335.399 238.635 335.024 238.295 334.593 238.038L334.59 238.036C333.963 237.69 333.4 237.238 332.926 236.701C332.705 236.437 332.58 236.105 332.569 235.761C332.558 235.418 332.661 235.082 332.862 234.805C333.075 234.627 333.323 234.496 333.59 234.42C333.86 234.343 334.143 234.324 334.421 234.364V234.366L334.435 234.365C334.767 234.354 335.097 234.431 335.391 234.588C335.607 234.764 335.776 234.991 335.885 235.248C335.995 235.507 336.04 235.788 336.016 236.068C335.959 236.658 335.968 237.252 336.04 237.84L336.195 237.831C336.202 236.25 336.563 234.524 337.824 233.635C338.019 233.497 338.263 233.393 338.495 233.365Z" fill="#EB5D1F" stroke="#EB5D1F" stroke-width="0.15479"/>
<path d="M274.615 219.606C274.845 219.579 275.054 219.628 275.202 219.783H275.203C275.312 219.915 275.384 220.073 275.41 220.242L275.411 220.246C275.496 220.676 275.469 221.12 275.332 221.536C275.195 221.952 274.952 222.326 274.628 222.62L274.506 222.73L274.669 222.754C275.017 222.803 275.339 222.694 275.633 222.524C275.925 222.355 276.197 222.121 276.444 221.907C276.69 221.695 276.971 221.486 277.263 221.36C277.552 221.235 277.845 221.193 278.125 221.299C278.37 221.422 278.566 221.627 278.68 221.877C278.793 222.128 278.817 222.409 278.749 222.676C278.589 223.227 278.265 223.717 277.82 224.08L277.817 224.083C277.149 224.694 276.402 225.212 275.596 225.623H272.019C272.011 225.604 272.005 225.584 271.997 225.565L271.944 225.458L271.941 225.453L271.817 225.277C271.519 224.876 271.144 224.536 270.713 224.279L270.71 224.277C270.162 223.975 269.662 223.592 269.229 223.141L269.047 222.943C268.826 222.679 268.7 222.347 268.688 222.002C268.678 221.66 268.781 221.323 268.981 221.046C269.195 220.869 269.443 220.737 269.71 220.661C269.98 220.584 270.263 220.565 270.541 220.605V220.607L270.555 220.606C270.887 220.596 271.217 220.672 271.511 220.829C271.727 221.006 271.897 221.232 272.006 221.489C272.115 221.748 272.16 222.03 272.136 222.31C272.079 222.899 272.088 223.493 272.16 224.081L272.314 224.072C272.321 222.491 272.683 220.765 273.944 219.876C274.139 219.739 274.383 219.634 274.615 219.606Z" fill="#EB5D1F" stroke="#EB5D1F" stroke-width="0.15479"/>
<path d="M295.905 233.365C296.135 233.338 296.344 233.386 296.492 233.542H296.493C296.602 233.673 296.674 233.832 296.7 234.001L296.701 234.004C296.786 234.434 296.759 234.879 296.622 235.295C296.485 235.711 296.242 236.085 295.918 236.379L295.796 236.489L295.959 236.513C296.307 236.561 296.629 236.453 296.923 236.283C297.216 236.114 297.487 235.88 297.734 235.666C297.98 235.453 298.261 235.245 298.553 235.119C298.842 234.994 299.135 234.952 299.415 235.058C299.66 235.181 299.856 235.385 299.97 235.636C300.083 235.886 300.107 236.168 300.039 236.435C299.879 236.986 299.555 237.476 299.11 237.839L299.107 237.842C298.439 238.453 297.692 238.971 296.886 239.382H293.309C293.301 239.363 293.295 239.343 293.287 239.324L293.234 239.217L293.231 239.212L293.107 239.036C292.809 238.635 292.434 238.295 292.003 238.038L292 238.036C291.373 237.69 290.81 237.238 290.336 236.701C290.115 236.437 289.99 236.105 289.979 235.761C289.968 235.418 290.071 235.082 290.271 234.805C290.485 234.627 290.733 234.496 291 234.42C291.27 234.343 291.553 234.324 291.831 234.364V234.366L291.845 234.365C292.177 234.354 292.507 234.431 292.801 234.588C293.017 234.764 293.186 234.991 293.295 235.248C293.405 235.507 293.45 235.788 293.426 236.068C293.369 236.658 293.378 237.252 293.45 237.84L293.604 237.831C293.612 236.25 293.973 234.524 295.234 233.635C295.429 233.497 295.673 233.393 295.905 233.365Z" fill="#EB5D1F" stroke="#EB5D1F" stroke-width="0.15479"/>
<path d="M21.0859 236.286C21.0859 236.286 25.7219 220.519 20.2149 208.911C17.8742 204.058 17.1682 198.576 18.2028 193.287C18.7135 190.78 19.4524 188.326 20.4102 185.954" stroke="#A2A2A2" stroke-width="0.15479" stroke-miterlimit="10"/>
<path d="M16.9905 178.618C16.9905 180.55 20.4854 186.138 20.4854 186.138C20.4854 186.138 23.9803 180.535 23.9803 178.618C23.9506 177.71 23.5695 176.849 22.9177 176.217C22.2659 175.585 21.3943 175.232 20.4872 175.232C19.5802 175.232 18.7087 175.585 18.0568 176.217C17.405 176.849 17.024 177.71 16.9942 178.618H16.9905Z" fill="#EB5D1F"/>
<path d="M11.2131 189.323C12.2604 190.944 18.2329 193.749 18.2329 193.749C18.2329 193.749 18.124 187.142 17.0767 185.522C16.557 184.781 15.771 184.271 14.8838 184.098C13.9967 183.926 13.0773 184.104 12.3186 184.596C11.5599 185.088 11.0209 185.855 10.8148 186.737C10.6087 187.618 10.7514 188.545 11.2131 189.323Z" fill="#EB5D1F"/>
<path d="M11.4684 207.617C13.1915 208.486 19.7608 207.888 19.7608 207.888C19.7608 207.888 16.3372 202.248 14.6142 201.371C14.2031 201.15 13.7518 201.013 13.287 200.968C12.8221 200.924 12.3531 200.974 11.9077 201.114C11.4623 201.254 11.0495 201.483 10.6936 201.786C10.3378 202.088 10.0461 202.46 9.83591 202.877C9.62568 203.295 9.50114 203.751 9.46963 204.217C9.43813 204.684 9.5003 205.152 9.65247 205.594C9.80465 206.037 10.0437 206.444 10.3556 206.792C10.6675 207.14 11.0459 207.422 11.4684 207.621V207.617Z" fill="#EB5D1F"/>
<path d="M14.768 221.414C16.3184 222.565 22.8952 223.084 22.8952 223.084C22.8952 223.084 20.474 216.939 18.9236 215.789C18.5539 215.515 18.134 215.318 17.688 215.207C17.242 215.096 16.7786 215.074 16.3242 215.143C15.8698 215.211 15.4334 215.369 15.0398 215.607C14.6462 215.844 14.3032 216.157 14.0304 216.527C13.7575 216.898 13.5602 217.318 13.4496 217.765C13.339 218.212 13.3173 218.676 13.3858 219.131C13.4543 219.586 13.6116 220.024 13.8488 220.418C14.0859 220.812 14.3983 221.156 14.768 221.429V221.414Z" fill="#EB5D1F"/>
<path d="M25.5719 194.122C24.1867 195.468 17.7412 196.863 17.7412 196.863C17.7412 196.863 19.3216 190.448 20.7031 189.102C21.3676 188.453 22.262 188.096 23.1896 188.108C24.1171 188.121 25.0017 188.502 25.6488 189.167C26.296 189.833 26.6526 190.729 26.6403 191.658C26.628 192.587 26.2477 193.473 25.5831 194.122H25.5719Z" fill="#EB5D1F"/>
<path d="M29.2282 210.306C27.5051 211.175 20.9358 210.577 20.9358 210.577C20.9358 210.577 24.3594 204.936 26.0824 204.06C26.9062 203.672 27.8488 203.621 28.7096 203.918C29.5703 204.215 30.2813 204.837 30.6912 205.652C31.1011 206.466 31.1776 207.408 30.9044 208.278C30.6311 209.148 30.0297 209.877 29.2282 210.31V210.306Z" fill="#EB5D1F"/>
<path d="M30.6284 226.528C29.0781 227.679 22.5012 228.198 22.5012 228.198C22.5012 228.198 24.9225 222.053 26.4728 220.903C27.2195 220.351 28.1546 220.118 29.0722 220.257C29.9899 220.395 30.815 220.894 31.3661 221.641C31.9171 222.389 32.149 223.326 32.0107 224.245C31.8723 225.165 31.3751 225.991 30.6284 226.543V226.528Z" fill="#EB5D1F"/>
<path d="M145.788 47.8182C152.629 47.8182 158.176 42.2625 158.176 35.4091C158.176 28.5557 152.629 23 145.788 23C138.946 23 133.4 28.5557 133.4 35.4091C133.4 42.2625 138.946 47.8182 145.788 47.8182Z" fill="#EB5D1F"/>
<path d="M180.877 177.989H165.935C165.935 177.989 166.88 170.342 167.475 168.694C168.042 167.099 168.556 164.749 173.419 164.749C177.824 164.749 179.094 166.829 179.58 168.694C180.04 170.558 180.877 177.989 180.877 177.989Z" fill="white"/>
<path d="M252.483 207.739H268.371L266.263 199.579H252.483V207.739Z" fill="black"/>
<path d="M56.6886 231.004C55.2835 226.492 55.7969 221.601 57.6884 217.277C58.1747 216.169 58.6341 215.143 58.9854 214.548C60.2013 212.576 63.4438 209.117 65.3083 207.739C66.9295 206.523 70.7935 205.091 72.739 204.523C78.1162 202.956 94.8963 201.065 94.8963 201.065L109.866 199.714L121.755 193.067C121.755 193.067 134.401 185.771 138.832 183.771C145.453 180.772 158.315 177.556 167.204 177.556C187.443 177.556 198.225 177.935 208.222 180.232C213.843 181.529 230.082 187.581 230.082 187.581L248.43 194.012C248.43 194.012 260.778 193.067 264.021 195.255C265.21 196.039 266.534 200.335 266.534 200.335L256.104 200.551L258.103 206.766L268.02 207.144L269.668 210.063C271.695 213.684 272.424 217.926 271.641 222.006C270.911 225.789 269.641 230.004 267.533 231.517C264.669 233.571 245.16 234.733 245.16 234.733C245.16 234.733 246.565 214.305 226.948 213.819C217.112 213.575 210.114 220.682 208.952 227.545C208.574 229.761 208.222 236.462 208.222 236.462L109.893 237.948C109.866 237.948 109.893 237.948 109.893 237.948H109.866V236.814C109.623 230.247 107.38 214.575 89.8974 214.575C70.6044 214.575 71.7123 237.867 71.7123 237.867C71.7123 237.867 62.2279 237.408 59.3907 235.354C58.0937 234.409 57.256 232.787 56.6886 231.004Z" fill="#EB5D1F"/>
<path d="M174.5 197.039L175.446 181.745C175.446 181.745 191.091 181.637 197.63 182.988C199.927 183.474 205.601 185.906 210.249 188.662C215.95 192.04 220.409 196.093 220.409 196.093L174.5 197.039Z" fill="#272425"/>
<path d="M166.583 197.768L168.718 181.664C168.718 181.664 160.692 181.664 152.316 183.717C140.94 186.5 122.566 200.011 122.566 200.011L166.583 197.768Z" fill="#272425"/>
<path d="M166.583 197.768L163.8 230.166" stroke="#EB5D1F" stroke-width="0.5" stroke-miterlimit="10"/>
<path d="M208.682 229.626L109.218 231.247" stroke="#EB5D1F" stroke-width="0.5" stroke-miterlimit="10"/>
<path d="M122.566 200.011L117.729 230.437" stroke="#EB5D1F" stroke-width="0.5" stroke-miterlimit="10"/>
<path d="M220.409 196.12L219.355 214.818" stroke="#EB5D1F" stroke-width="0.5" stroke-miterlimit="10"/>
<path d="M206.279 206.704H214.628V203.678H206.279V206.704Z" fill="#EB5D1F"/>
<path d="M152.805 206.704H161.154V203.678H152.805V206.704Z" fill="#EB5D1F"/>
<path d="M65.3082 207.739H74.8736C76.0895 207.739 76.711 209.171 75.9274 210.063C71.7662 214.764 65.7675 217.412 59.4716 217.304L57.6882 217.277C57.6882 217.277 59.6608 211.711 65.3082 207.739Z" fill="white"/>
<path d="M210.087 232.463C210.087 241.596 217.463 249 226.569 249C235.676 249 243.052 241.596 243.052 232.463C243.052 223.33 235.676 215.926 226.569 215.926C217.463 215.926 210.087 223.33 210.087 232.463Z" fill="#272425"/>
<path d="M219.598 232.463C219.598 236.327 222.733 239.462 226.597 239.462C230.461 239.462 233.595 236.327 233.595 232.463C233.595 228.599 230.461 225.465 226.597 225.465C222.706 225.438 219.598 228.572 219.598 232.463Z" fill="#CFD1D2"/>
<path d="M74.1711 232.463C74.1711 241.596 81.5479 249 90.654 249C99.76 249 107.137 241.596 107.137 232.463C107.137 223.33 99.76 215.926 90.654 215.926C81.5479 215.926 74.1711 223.33 74.1711 232.463Z" fill="#272425"/>
<path d="M83.6555 232.463C83.6555 236.327 86.79 239.462 90.654 239.462C94.518 239.462 97.6524 236.327 97.6524 232.463C97.6524 228.599 94.518 225.465 90.654 225.465C86.79 225.438 83.6555 228.572 83.6555 232.463Z" fill="#CFD1D2"/>
<path d="M113.937 260.552C113.938 260.494 113.934 260.436 113.919 260.376C113.043 256.9 108.696 254.734 108.696 254.734L106.973 254.87C105.983 257.934 106.11 259.813 106.27 260.65C106.274 260.674 106.281 260.696 106.287 260.719C107.708 260.846 110.633 260.929 113.937 260.552Z" fill="#EB5D1F"/>
<path d="M106.287 260.715C106.364 260.994 106.57 261.212 106.834 261.268C108.855 261.694 112.068 261.351 113.417 261.174C113.714 261.135 113.932 260.86 113.937 260.548C110.633 260.925 107.708 260.842 106.287 260.715Z" fill="black"/>
<path d="M106.281 252.296L107.011 255.812C107.064 256.07 107.261 256.262 107.501 256.285C107.795 256.313 108.212 256.329 108.632 256.267C109.008 256.212 109.27 255.829 109.203 255.418L108.696 252.296H106.281Z" fill="url(#paint0_linear_6_1682)"/>
<path d="M121.398 260.674C119.495 260.621 118.511 260.397 118.002 260.188C118.001 260.378 118.002 260.571 118.008 260.77C118.015 260.984 118.173 261.154 118.367 261.153L128.813 261.085C129.146 261.083 129.341 260.696 129.197 260.39C127.828 260.503 124.339 260.756 121.398 260.674Z" fill="black"/>
<path d="M129.196 260.39C129.184 260.363 129.173 260.336 129.155 260.311C128.233 259.02 125.883 256.45 121.24 255.336L119.012 255.265C119.012 255.265 118.02 256.991 118.002 260.188C118.511 260.396 119.495 260.621 121.397 260.674C124.339 260.756 127.827 260.502 129.196 260.39Z" fill="#EB5D1F"/>
<path d="M118.501 251.991C118.536 252.156 119 254.658 119.179 255.628C119.222 255.858 119.401 256.027 119.615 256.04C119.996 256.061 120.611 256.064 121.14 255.92C121.426 255.842 121.618 255.551 121.597 255.227L121.348 251.27L118.501 251.991Z" fill="url(#paint1_linear_6_1682)"/>
<path d="M116.813 205.79C116.813 205.79 119.877 226.868 122.088 251.951C122.129 252.418 121.757 252.825 121.299 252.921C120.623 253.064 119.631 253.233 118.809 253.21C118.37 253.198 118.003 252.872 117.929 252.439C117.176 248.016 111.801 224.281 110.39 219.057C110.39 219.057 108.77 241.247 109.288 252.759C109.301 253.045 109.091 253.293 108.807 253.326C108.375 253.376 107.686 253.414 106.807 253.321C106.474 253.285 106.205 253.033 106.157 252.701C105.621 248.958 102.532 226.679 102.664 210.63C102.671 209.725 103.725 202.288 103.725 202.288L116.813 205.79Z" fill="black"/>
<path d="M143.076 185.641C143.076 185.641 142.218 183.38 141.217 183.587C140.215 183.795 139.119 184.565 139.119 184.565L137.509 186.744C137.509 186.744 142.027 188.526 143.617 187.505C143.617 187.505 148.232 188.304 154.06 187.346C153.216 185.563 152.713 183.777 152.418 182.392C149.466 184.064 146.286 185.314 143.076 185.641Z" fill="#F9B374"/>
<path d="M167.522 169.243C167.522 169.243 160.915 177.575 152.417 182.391C152.712 183.777 153.216 185.562 154.059 187.345C158.467 186.62 163.569 184.893 167.893 181.052L167.522 169.243Z" fill="#EB5D1F"/>
<path d="M118 170.344L118.41 181.374C119.575 181.776 120.684 182.088 121.741 182.321C122.402 180.191 123.856 177.577 125.047 175.634C120.671 174.085 118 170.344 118 170.344Z" fill="#FFDBCC"/>
<path d="M139.853 170.151C133.848 176.641 128.989 177.023 125.048 175.629C123.856 177.572 122.402 180.186 121.741 182.315C137.775 185.855 141.551 171.097 141.551 171.097L139.853 170.151Z" fill="#F9B375"/>
<path d="M103.264 207C102.949 206.888 102.729 206.601 102.695 206.269C102.287 202.311 100.315 177.772 112.77 167.679C112.77 167.679 113.484 165.808 119.355 170.407C125.226 175.006 122.083 179.826 120.677 186.475C118.976 194.521 115.992 201.097 117.312 206.048C117.403 206.39 117.224 206.748 116.892 206.871C112.332 208.554 107.789 208.609 103.264 207Z" fill="#FFDBCC"/>
<path d="M117.628 160.328C117.625 160.677 112.651 167.749 112.651 167.749C112.651 167.749 113.544 169.509 117.806 170.938L121.485 163.366L117.628 160.328Z" fill="#F9B776"/>
<path d="M115.672 184.611C115.672 184.611 125.108 192.522 135.297 189.07C135.929 188.856 136.62 188.903 137.21 189.214L140.139 190.763C141.369 191.413 142.892 190.986 143.605 189.792C144.012 189.111 144.359 188.332 144.428 187.586L138.696 185.263L139.118 184.56C139.118 184.56 136.32 184.323 135.588 186.331C135.588 186.331 130.258 188.55 121.268 178.651C121.269 178.651 117.19 182.123 115.672 184.611Z" fill="url(#paint2_linear_6_1682)"/>
<path d="M115.165 184.532C115.133 184.532 115.102 184.524 115.075 184.505C111.101 181.817 109.233 177.48 109.214 177.436C109.179 177.353 109.217 177.259 109.299 177.224C109.382 177.189 109.476 177.227 109.511 177.31C109.529 177.353 111.364 181.605 115.255 184.237C115.329 184.287 115.349 184.387 115.299 184.462C115.267 184.507 115.217 184.532 115.165 184.532Z" fill="#EB5D1F"/>
<path d="M121.082 178.517C121.029 178.517 120.977 178.491 120.946 178.443C120.934 178.424 119.72 176.533 117.409 172.388C116.697 171.114 115.763 170.307 114.632 169.99C112.758 169.466 110.952 170.472 110.933 170.482C110.856 170.525 110.757 170.499 110.713 170.422C110.669 170.344 110.696 170.245 110.774 170.201C110.851 170.157 112.709 169.116 114.716 169.678C115.935 170.019 116.936 170.877 117.691 172.231C119.997 176.365 121.206 178.25 121.218 178.268C121.266 178.343 121.245 178.443 121.169 178.492C121.143 178.508 121.112 178.517 121.082 178.517Z" fill="#EB5D1F"/>
<path d="M121.544 156.277C121.544 156.277 123.313 160.346 123.432 162.482C123.551 164.618 124.011 166.004 121.544 166.434C119.076 166.864 116.998 165.634 115.873 163.506C115.873 163.506 114.109 160.227 114.504 158.885C114.9 157.542 121.544 156.277 121.544 156.277Z" fill="#F9B375"/>
<path d="M116.716 161.978L116.856 161.916C117.035 161.837 117.111 161.624 117.021 161.45C116.674 160.777 115.995 159.235 116.871 158.876C118.001 158.412 122.473 157.499 123.438 155.91C124.365 154.383 123.544 152.412 122.309 151.851C122.226 151.814 122.129 151.843 122.086 151.924L121.983 152.118C121.913 152.252 121.716 152.232 121.674 152.087C121.634 151.947 121.449 151.92 121.372 152.043C121.075 152.518 120.275 153.289 118.133 153.684C115.09 154.247 113.078 155.48 113.027 157.586C113.024 157.719 112.882 157.794 112.768 157.724C112.543 157.587 112.183 157.523 111.703 157.928C110.867 158.631 111.209 160.456 113.041 161.958C113.128 162.029 113.128 162.165 113.033 162.227C112.701 162.443 112.206 162.959 113.489 163.646C114.816 164.356 115.808 164.298 116.189 164.234C116.284 164.219 116.345 164.127 116.324 164.033L115.917 162.182C115.894 162.078 115.974 161.978 116.081 161.978H116.716V161.978Z" fill="black"/>
<path d="M116.792 162.367C116.792 162.367 116.117 159.767 114.953 160.496C113.789 161.225 115.557 163.409 116.493 163.506L116.792 162.367Z" fill="#F9B776"/>
<path d="M137.21 189.216C137.21 189.216 139.608 191.564 140.071 191.222C140.235 191.101 140.651 190.659 141.054 190.167C141.338 189.82 141.368 189.33 141.123 188.953L140.558 188.079C140.019 187.246 138.865 187.072 138.118 187.723C137.741 188.052 137.399 188.528 137.21 189.216Z" fill="#F9B375"/>
<path d="M175.763 206.169C174.471 200.024 173.178 196.466 168.852 184.819C167.49 181.153 166.254 177.445 166.851 173.58L167.522 169.239C167.522 169.239 175.931 166.391 185.252 169.119C185.252 169.119 197.968 174.65 189.331 201.963C185.437 206.325 180.881 207.567 175.763 206.169Z" fill="#EB5D1F"/>
<path d="M168.954 163.701L171.134 168.945C171.272 169.277 171.569 169.513 171.923 169.573C173.18 169.789 176.221 170.126 178.217 168.812C178.455 168.655 178.516 168.331 178.353 168.097L174.325 162.308L168.954 163.701Z" fill="#F9B073"/>
<path d="M171.209 155.676C171.117 155.762 167.344 163.18 167.344 163.18L171.62 165.247L176.24 158.748C176.239 158.748 172.742 154.231 171.209 155.676Z" fill="#F9B073"/>
<path d="M174.296 159.529L172.163 163.089C172.131 163.142 172.092 163.191 172.046 163.234C171.792 163.471 170.924 164.159 170.253 163.222C169.68 162.424 169.143 161.698 168.568 161.398C168.232 161.223 167.818 161.363 167.647 161.701C167.296 162.399 166.615 163.82 166.188 165.168C166.08 165.505 166.254 165.868 166.583 166.001C167.449 166.352 169.16 166.987 170.679 167.197C170.928 167.231 171.175 167.126 171.324 166.922C171.977 166.026 173.818 163.522 174.447 162.895C175.031 162.313 176.108 162.532 176.594 162.672C176.778 162.725 176.975 162.699 177.139 162.6C177.631 162.303 178.491 161.563 177.705 160.31C177.509 159.999 177.609 159.584 177.916 159.382C178.466 159.02 179.063 158.34 178.494 157.239C177.918 156.124 176.891 156.024 176.191 156.11C175.881 156.148 175.566 155.985 175.448 155.696C175.395 155.567 175.29 155.458 175.096 155.418C174.728 155.344 174.488 155.008 174.56 154.64C174.684 154.009 174.591 153.19 173.584 152.636C171.739 151.62 170.123 153.275 169.712 154.672C169.301 156.069 171.364 157.056 172.662 157.221C173.615 157.342 174.138 158.383 174.348 158.928C174.424 159.127 174.405 159.347 174.296 159.529Z" fill="black"/>
<path d="M173.646 164.207C173.646 164.207 174.466 161.803 175.517 161.891C176.567 161.979 177.394 163.026 176.092 164.204C174.473 165.669 173.646 164.207 173.646 164.207Z" fill="#F9B073"/>
<path d="M174.935 260.334C176.965 260.51 180.49 260.795 183.269 260.918C184.939 260.992 185.9 260.828 186.454 260.606C186.453 260.669 186.452 260.727 186.449 260.783C186.437 261.075 186.198 261.31 185.903 261.326C180.653 261.62 176.478 261.428 174.991 261.337C174.684 261.318 174.5 260.984 174.658 260.721C174.736 260.59 174.831 260.461 174.935 260.334Z" fill="black"/>
<path d="M183.269 260.919C180.49 260.797 176.966 260.511 174.935 260.335C176.931 257.883 183.269 256.23 183.269 256.23H185.059C186.29 258.006 186.468 259.698 186.455 260.607C185.901 260.829 184.939 260.993 183.269 260.919Z" fill="#EB5D1F"/>
<path d="M185.36 253.301L185.192 256.619C185.174 256.978 184.905 257.28 184.546 257.332C184.189 257.383 183.709 257.389 183.201 257.22C182.889 257.116 182.657 256.853 182.599 256.531L182.02 253.301H185.36Z" fill="url(#paint3_linear_6_1682)"/>
<path d="M208.608 260.878C209.489 260.755 209.887 260.297 210.054 259.808C210.056 259.812 210.057 259.816 210.057 259.821C210.187 260.338 209.887 260.873 209.286 261.128C208.56 261.435 207.767 261.488 207.151 261.462C206.49 261.435 205.883 261.161 205.55 260.723L205.545 260.716C206.208 261.044 207.139 261.083 208.608 260.878Z" fill="black"/>
<path d="M204.455 253.265H205.932C208.18 253.219 209.592 257.967 210.054 259.806C209.887 260.295 209.489 260.754 208.608 260.876C207.139 261.081 206.208 261.043 205.544 260.714C204.329 259.113 203.727 256.77 203.438 255.402C203.109 253.847 204.455 253.265 204.455 253.265Z" fill="#EB5D1F"/>
<path d="M205.742 250.186L206.562 253.45C206.662 253.85 206.471 254.264 206.101 254.454C205.643 254.689 204.997 254.936 204.404 254.865C204.125 254.832 203.893 254.635 203.801 254.372L202.598 250.938L205.742 250.186Z" fill="url(#paint4_linear_6_1682)"/>
<path d="M206.72 251.136C205.701 252.042 202.383 252.162 202.383 252.162C190.435 223.452 185.454 215.548 185.454 215.548C187.179 226.385 185.826 254.2 185.826 254.2C183.854 255.071 181.313 254.2 181.313 254.2C181.152 236.46 178.658 217.397 175.44 205.199C183.516 205.018 187.904 203.255 189.307 202.145C196.037 213.01 206.72 251.136 206.72 251.136Z" fill="black"/>
<path d="M139.345 168.888C139.345 168.888 138.82 167.937 138.876 167.173C138.933 166.408 138.456 165.284 138.963 165.367C139.47 165.451 139.575 165.383 139.712 166.301C139.849 167.219 141.086 170.604 139.345 168.888Z" fill="url(#paint5_linear_6_1682)"/>
<path d="M143.173 163.208C143.167 163.064 143.098 162.931 142.984 162.843C142.87 162.756 142.723 162.724 142.583 162.756L139.088 163.552C138.952 163.582 138.862 163.71 138.877 163.849L139.893 172.942C139.897 172.981 139.918 173.016 139.948 173.041C139.979 173.065 140.019 173.076 140.058 173.071L143.108 172.701C143.358 172.671 143.543 172.454 143.533 172.202L143.173 163.208Z" fill="url(#paint6_linear_6_1682)"/>
<path d="M142.19 163.731C142.186 163.65 142.145 163.574 142.079 163.526C142.014 163.477 141.93 163.461 141.851 163.481L139.552 164.056C139.419 164.089 139.331 164.216 139.346 164.352L140.218 172.096C140.222 172.136 140.244 172.173 140.276 172.197C140.309 172.222 140.35 172.232 140.391 172.224L142.511 171.846C142.584 171.833 142.636 171.767 142.633 171.692L142.19 163.731Z" fill="white"/>
<path d="M140.869 163.52C140.874 163.547 140.837 163.578 140.785 163.589L140.016 163.748C139.964 163.759 139.917 163.745 139.912 163.718L139.906 163.691C139.901 163.663 139.938 163.633 139.99 163.622L140.759 163.463C140.811 163.452 140.858 163.465 140.863 163.493L140.869 163.52Z" fill="url(#paint7_linear_6_1682)"/>
<path d="M144.387 165.52C143.822 165.312 142.717 163.397 142.506 164.027C142.295 164.657 142.595 165.52 142.506 165.788C142.417 166.055 141.805 167.543 142.081 168.228C142.279 168.721 142.606 170.241 142.774 171.049C142.829 171.318 143.065 171.509 143.338 171.51C143.612 171.51 143.848 171.318 143.904 171.05C143.925 170.942 144.951 165.728 144.387 165.52Z" fill="url(#paint8_linear_6_1682)"/>
<path d="M181.358 197.797C181.087 197.854 180.87 198.022 180.765 198.256L179.314 201.497C179.122 201.927 179.354 202.457 179.836 202.695L187.191 206.317C187.443 206.442 187.73 206.467 187.98 206.386C188.23 206.305 188.419 206.126 188.501 205.893L189.355 203.457C189.488 203.079 189.312 202.637 188.931 202.387L182.172 197.96C181.927 197.799 181.629 197.74 181.358 197.797Z" fill="url(#paint9_linear_6_1682)"/>
<path d="M193.854 191.186C195.426 179.295 186.272 170.151 186.272 170.151L180.827 176.507C184.961 181.667 186.927 186.395 187.825 190.109C189.015 189.761 191.882 189.213 193.854 191.186Z" fill="#EB5D1F"/>
<path d="M187.824 190.448C187.672 190.448 187.534 190.344 187.496 190.19C186.39 185.612 184.057 181.08 180.563 176.721C180.447 176.576 180.47 176.363 180.616 176.246C180.761 176.129 180.973 176.153 181.09 176.298C184.646 180.736 187.022 185.357 188.153 190.031C188.197 190.212 188.085 190.395 187.904 190.439C187.877 190.445 187.85 190.448 187.824 190.448Z" fill="black"/>
<path d="M187.904 190.443C188.738 193.894 188.571 196.583 188.444 197.812C188.396 198.275 188.024 198.637 187.56 198.67C187.032 198.707 186.314 198.755 185.673 198.792C184.968 198.833 184.185 198.387 183.662 198.014C183.394 197.824 183.049 198.12 183.198 198.412C183.589 199.178 184.58 199.858 185.263 200.259C185.512 200.405 185.465 200.777 185.188 200.855L183.313 201.387C183.1 201.447 182.941 201.623 182.902 201.841C182.862 202.058 182.949 202.278 183.127 202.41C187.443 205.613 190.238 201.146 190.238 201.146C192.357 197.868 193.453 194.22 193.854 191.192C191.852 188.775 189.095 190.095 187.904 190.443Z" fill="#F9B375"/>
<defs>
<linearGradient id="paint0_linear_6_1682" x1="108.323" y1="248.911" x2="106.834" y2="261.89" gradientUnits="userSpaceOnUse">
<stop stop-color="#F9B776"/>
<stop offset="1" stop-color="#F47960"/>
</linearGradient>
<linearGradient id="paint1_linear_6_1682" x1="120.221" y1="250.289" x2="119.552" y2="263.335" gradientUnits="userSpaceOnUse">
<stop stop-color="#F9B776"/>
<stop offset="1" stop-color="#F47960"/>
</linearGradient>
<linearGradient id="paint2_linear_6_1682" x1="131.346" y1="184.232" x2="105.652" y2="228.827" gradientUnits="userSpaceOnUse">
<stop stop-color="#F9B776"/>
<stop offset="1" stop-color="#F47960"/>
</linearGradient>
<linearGradient id="paint3_linear_6_1682" x1="185.36" y1="255.332" x2="182.021" y2="255.332" gradientUnits="userSpaceOnUse">
<stop stop-color="#F9B776"/>
<stop offset="1" stop-color="#F47960"/>
</linearGradient>
<linearGradient id="paint4_linear_6_1682" x1="206.588" y1="252.532" x2="202.598" y2="252.532" gradientUnits="userSpaceOnUse">
<stop stop-color="#F9B776"/>
<stop offset="1" stop-color="#F47960"/>
</linearGradient>
<linearGradient id="paint5_linear_6_1682" x1="140.507" y1="165.922" x2="136.763" y2="171.198" gradientUnits="userSpaceOnUse">
<stop stop-color="#F9B776"/>
<stop offset="1" stop-color="#F47960"/>
</linearGradient>
<linearGradient id="paint6_linear_6_1682" x1="144.79" y1="162.989" x2="131.678" y2="181.468" gradientUnits="userSpaceOnUse">
<stop stop-color="#2B3582"/>
<stop offset="1" stop-color="#150E42"/>
</linearGradient>
<linearGradient id="paint7_linear_6_1682" x1="140.583" y1="163.387" x2="140.441" y2="164.311" gradientUnits="userSpaceOnUse">
<stop stop-color="#8D55D1"/>
<stop offset="0.9964" stop-color="#1C2873"/>
</linearGradient>
<linearGradient id="paint8_linear_6_1682" x1="145.087" y1="164.91" x2="137.338" y2="175.831" gradientUnits="userSpaceOnUse">
<stop stop-color="#F9B776"/>
<stop offset="1" stop-color="#F47960"/>
</linearGradient>
<linearGradient id="paint9_linear_6_1682" x1="184.329" y1="196.983" x2="184.309" y2="216.441" gradientUnits="userSpaceOnUse">
<stop stop-color="#404043"/>
<stop offset="1"/>
</linearGradient>
</defs>
</svg>
